PathFileType	4	(X/Y/Z)	 control3min.trc
DataRate	CameraRate	NumFrames	NumMarkers	Units	OrigDataRate	OrigDataStartFrame	OrigNumFrames
200	200	9	35	m	200	626	1000
Frame#	Time	C7			LSH			RSH			MAN			RASI			LASI			HIPR			HIPL			RPSI			LPSI			COX			RTHI1			RTHI2			RTHI3			RTHI4			RSHA1			RSHA2			RSHA3			RSHA4			RHEEL			RMET5			RMET1			RTOE			LTHI1			LTHI2			LTHI3			LTHI4			LSHA1			LSHA2			LSHA3			LSHA4			LHEEL			LMET5			LMET1			LTOE			
		X1	Y1	Z1	X2	Y2	Z2	X3	Y3	Z3	X4	Y4	Z4	X5	Y5	Z5	X6	Y6	Z6	X7	Y7	Z7	X8	Y8	Z8	X9	Y9	Z9	X10	Y10	Z10	X11	Y11	Z11	X12	Y12	Z12	X13	Y13	Z13	X14	Y14	Z14	X15	Y15	Z15	X16	Y16	Z16	X17	Y17	Z17	X18	Y18	Z18	X19	Y19	Z19	X20	Y20	Z20	X21	Y21	Z21	X22	Y22	Z22	X23	Y23	Z23	X24	Y24	Z24	X25	Y25	Z25	X26	Y26	Z26	X27	Y27	Z27	X28	Y28	Z28	X29	Y29	Z29	X30	Y30	Z30	X31	Y31	Z31	X32	Y32	Z32	X33	Y33	Z33	X34	Y34	Z34	X35	Y35	Z35	
626	3.1300	-0.268485	1.303675	-0.556486	-0.204925	1.256358	-0.733566	-0.188532	1.251157	-0.378526	-0.154487	1.242480	-0.560434	-0.142733	0.848253	-0.464433	-0.136564	0.859762	-0.653040	-0.205731	0.900371	-0.422167	-0.186041	0.905421	-0.693427	-0.293924	0.888085	-0.499398	-0.289162	0.889522	-0.615469	-0.294639	0.899343	-0.558619	-0.234199	0.633595	-0.413889	-0.208647	0.579630	-0.408478	-0.152628	0.603487	-0.387848	-0.170467	0.662408	-0.389294	-0.254151	0.267576	-0.382182	-0.278860	0.235560	-0.382592	-0.234513	0.200989	-0.377649	-0.205321	0.231636	-0.379967	-0.389089	0.080772	-0.412525	-0.232783	0.027645	-0.363022	-0.209200	0.032906	-0.447105	-0.185730	0.026693	-0.439222	-0.188140	0.650314	-0.730756	-0.168670	0.591792	-0.730342	-0.106722	0.606216	-0.715993	-0.118817	0.664800	-0.715083	-0.252005	0.247796	-0.752606	-0.270732	0.208309	-0.752045	-0.224187	0.183675	-0.739367	-0.199886	0.216299	-0.738323	-0.377723	0.082810	-0.712573	-0.225592	0.028120	-0.783410	-0.195800	0.033391	-0.707562	-0.168880	0.025619	-0.720496	
627	3.1350	-0.268020	1.301885	-0.556492	-0.204851	1.254192	-0.733743	-0.188229	1.248823	-0.378431	-0.154339	1.240275	-0.560534	-0.142824	0.846583	-0.464739	-0.136894	0.858186	-0.653175	-0.205864	0.898773	-0.422256	-0.186463	0.904019	-0.693532	-0.294132	0.886576	-0.499464	-0.289508	0.888061	-0.615504	-0.294914	0.897785	-0.558633	-0.233809	0.631753	-0.413814	-0.208085	0.577856	-0.408503	-0.152034	0.601887	-0.388092	-0.170061	0.660738	-0.389482	-0.253378	0.266569	-0.381737	-0.278136	0.234649	-0.382138	-0.233950	0.199823	-0.377689	-0.204651	0.230389	-0.380076	-0.389390	0.080275	-0.411875	-0.232705	0.027586	-0.362833	-0.209330	0.032906	-0.447049	-0.185812	0.026704	-0.439168	-0.188112	0.648691	-0.730914	-0.168376	0.590259	-0.730444	-0.106500	0.604972	-0.716124	-0.118855	0.663503	-0.715272	-0.251570	0.247032	-0.752412	-0.270427	0.207609	-0.751864	-0.223930	0.182813	-0.739295	-0.199520	0.215347	-0.738266	-0.377827	0.082352	-0.712407	-0.225607	0.028084	-0.783398	-0.195809	0.033344	-0.707498	-0.168872	0.025599	-0.720544	
628	3.1400	-0.267604	1.300551	-0.556495	-0.204796	1.252528	-0.733909	-0.187875	1.246977	-0.378388	-0.154228	1.238577	-0.560654	-0.142800	0.845345	-0.465089	-0.137139	0.857078	-0.653337	-0.205761	0.897752	-0.422399	-0.186772	0.903085	-0.693630	-0.294218	0.885448	-0.499511	-0.289771	0.886993	-0.615526	-0.295069	0.896620	-0.558615	-0.233420	0.630375	-0.413690	-0.207560	0.576536	-0.408493	-0.151431	0.600698	-0.388328	-0.169618	0.659498	-0.389658	-0.252770	0.265774	-0.381365	-0.277572	0.233924	-0.381742	-0.233507	0.198927	-0.377714	-0.204130	0.229414	-0.380165	-0.389614	0.079864	-0.411296	-0.232626	0.027538	-0.362664	-0.209443	0.032907	-0.446996	-0.185884	0.026713	-0.439123	-0.187993	0.647534	-0.731156	-0.168027	0.589187	-0.730638	-0.106228	0.604142	-0.716289	-0.118807	0.662629	-0.715482	-0.251266	0.246566	-0.752176	-0.270220	0.207183	-0.751625	-0.223728	0.182252	-0.739204	-0.199243	0.214730	-0.738248	-0.377832	0.082079	-0.712095	-0.225633	0.028061	-0.783334	-0.195765	0.033301	-0.707430	-0.168835	0.025579	-0.720583	
629	3.1450	-0.267251	1.299686	-0.556493	-0.204765	1.251373	-0.734063	-0.187488	1.245669	-0.378375	-0.154129	1.237452	-0.560789	-0.142665	0.844533	-0.465460	-0.137291	0.856420	-0.653544	-0.205467	0.897224	-0.422587	-0.186997	0.902561	-0.693738	-0.294179	0.884690	-0.499537	-0.289953	0.886314	-0.615532	-0.295127	0.895875	-0.558571	-0.233033	0.629502	-0.413537	-0.207072	0.575694	-0.408446	-0.150833	0.599955	-0.388550	-0.169152	0.658712	-0.389837	-0.252349	0.265227	-0.381083	-0.277180	0.233414	-0.381444	-0.233189	0.198294	-0.377762	-0.203772	0.228742	-0.380250	-0.389739	0.079529	-0.410860	-0.232561	0.027504	-0.362534	-0.209530	0.032905	-0.446958	-0.185939	0.026720	-0.439091	-0.187798	0.646881	-0.731478	-0.167648	0.588603	-0.730930	-0.105924	0.603745	-0.716493	-0.118685	0.662192	-0.715707	-0.251081	0.246365	-0.751930	-0.270105	0.207004	-0.751358	-0.223592	0.181970	-0.739102	-0.199059	0.214412	-0.738264	-0.377759	0.081960	-0.711664	-0.225668	0.028050	-0.783224	-0.195677	0.033259	-0.707356	-0.168774	0.025557	-0.720614	
630	3.1500	-0.266977	1.299300	-0.556485	-0.204809	1.250752	-0.734205	-0.187086	1.244915	-0.378398	-0.154080	1.236879	-0.560932	-0.142433	0.844150	-0.465830	-0.137347	0.856206	-0.653797	-0.205038	0.897121	-0.422798	-0.187159	0.902413	-0.693871	-0.294013	0.884304	-0.499541	-0.290046	0.886030	-0.615516	-0.295106	0.895539	-0.558513	-0.232660	0.629143	-0.413363	-0.206639	0.575353	-0.408359	-0.150281	0.599672	-0.388756	-0.168672	0.658396	-0.390025	-0.252140	0.264920	-0.380929	-0.276984	0.233120	-0.381273	-0.233031	0.197943	-0.377824	-0.203591	0.228377	-0.380345	-0.389759	0.079265	-0.410607	-0.232516	0.027484	-0.362455	-0.209586	0.032899	-0.446939	-0.185975	0.026722	-0.439072	-0.187557	0.646739	-0.731869	-0.167273	0.588512	-0.731322	-0.105615	0.603788	-0.716747	-0.118512	0.662204	-0.715949	-0.251028	0.246390	-0.751718	-0.270092	0.207037	-0.751100	-0.223537	0.181944	-0.739011	-0.198977	0.214371	-0.738320	-0.377629	0.081976	-0.711152	-0.225710	0.028047	-0.783077	-0.195556	0.033220	-0.707281	-0.168694	0.025538	-0.720641	
631	3.1550	-0.266793	1.299398	-0.556470	-0.204937	1.250663	-0.734335	-0.186692	1.244722	-0.378445	-0.154075	1.236839	-0.561083	-0.142113	0.844197	-0.466183	-0.137297	0.856439	-0.654090	-0.204529	0.897381	-0.423005	-0.187279	0.902623	-0.694034	-0.293725	0.884297	-0.499527	-0.290044	0.886159	-0.615474	-0.295024	0.895642	-0.558449	-0.232312	0.629299	-0.413161	-0.206281	0.575515	-0.408217	-0.149786	0.599848	-0.388948	-0.168191	0.658558	-0.390227	-0.252149	0.264872	-0.380891	-0.276989	0.233059	-0.381233	-0.233041	0.197910	-0.377897	-0.203596	0.228335	-0.380447	-0.389731	0.079137	-0.410527	-0.232493	0.027478	-0.362431	-0.209613	0.032887	-0.446940	-0.185992	0.026721	-0.439069	-0.187301	0.647106	-0.732330	-0.166935	0.588915	-0.731811	-0.105337	0.604257	-0.717057	-0.118320	0.662656	-0.716217	-0.251122	0.246610	-0.751574	-0.270188	0.207252	-0.750887	-0.223578	0.182153	-0.738949	-0.199020	0.214580	-0.738430	-0.377462	0.082100	-0.710597	-0.225755	0.028052	-0.782907	-0.195418	0.033183	-0.707208	-0.168609	0.025523	-0.720664	
632	3.1600	-0.266706	1.299981	-0.556447	-0.205141	1.251099	-0.734448	-0.186338	1.245106	-0.378485	-0.154051	1.237375	-0.561252	-0.141714	0.844688	-0.466515	-0.137137	0.857131	-0.654408	-0.203989	0.897963	-0.423183	-0.187350	0.903210	-0.694235	-0.293369	0.884710	-0.499473	-0.289941	0.886713	-0.615410	-0.294859	0.896190	-0.558373	-0.232002	0.629974	-0.412927	-0.206013	0.576172	-0.408011	-0.149365	0.600477	-0.389127	-0.167722	0.659189	-0.390431	-0.252383	0.265087	-0.380977	-0.277191	0.233232	-0.381311	-0.233206	0.198174	-0.377989	-0.203787	0.228617	-0.380555	-0.389686	0.079192	-0.410632	-0.232489	0.027486	-0.362457	-0.209610	0.032872	-0.446960	-0.185992	0.026718	-0.439078	-0.187069	0.647960	-0.732849	-0.166674	0.589786	-0.732386	-0.105126	0.605136	-0.717432	-0.118140	0.663530	-0.716520	-0.251383	0.247005	-0.751531	-0.270404	0.207625	-0.750751	-0.223725	0.182572	-0.738956	-0.199203	0.215030	-0.738615	-0.377271	0.082332	-0.710057	-0.225800	0.028061	-0.782728	-0.195280	0.033149	-0.707145	-0.168530	0.025509	-0.720688	
633	3.1650	-0.266723	1.301046	-0.556415	-0.205422	1.252068	-0.734546	-0.186053	1.246055	-0.378553	-0.154038	1.238457	-0.561428	-0.141243	0.845636	-0.466824	-0.136862	0.858287	-0.654730	-0.203459	0.898857	-0.423313	-0.187364	0.904199	-0.694465	-0.292949	0.885573	-0.499399	-0.289730	0.887721	-0.615330	-0.294618	0.897187	-0.558305	-0.231741	0.631165	-0.412653	-0.205839	0.577326	-0.407741	-0.149009	0.601549	-0.389261	-0.167273	0.660285	-0.390633	-0.252838	0.265556	-0.381179	-0.277594	0.233640	-0.381498	-0.233513	0.198712	-0.378103	-0.204158	0.229222	-0.380664	-0.389613	0.079433	-0.410872	-0.232501	0.027507	-0.362525	-0.209582	0.032855	-0.446994	-0.185978	0.026712	-0.439098	-0.186891	0.649287	-0.733416	-0.166521	0.591107	-0.733036	-0.105009	0.606401	-0.717877	-0.117996	0.664796	-0.716866	-0.251829	0.247563	-0.751608	-0.270759	0.208126	-0.750706	-0.223982	0.183217	-0.739068	-0.199531	0.215712	-0.738897	-0.377063	0.082688	-0.709592	-0.225838	0.028073	-0.782560	-0.195155	0.033123	-0.707100	-0.168465	0.025499	-0.720718	
634	3.1700	-0.266846	1.302578	-0.556377	-0.205783	1.253561	-0.734625	-0.185860	1.247536	-0.378653	-0.154111	1.240009	-0.561600	-0.140712	0.847053	-0.467106	-0.136482	0.859918	-0.655034	-0.202960	0.900113	-0.423380	-0.187290	0.905634	-0.694708	-0.292466	0.886911	-0.499325	-0.289399	0.889207	-0.615250	-0.294292	0.898629	-0.558253	-0.231533	0.632853	-0.412323	-0.205773	0.578959	-0.407407	-0.148722	0.603047	-0.389349	-0.166850	0.661827	-0.390823	-0.253493	0.266271	-0.381475	-0.278186	0.234266	-0.381761	-0.233939	0.199524	-0.378231	-0.204697	0.230146	-0.380762	-0.389504	0.079858	-0.411184	-0.232519	0.027541	-0.362622	-0.209536	0.032838	-0.447036	-0.185955	0.026706	-0.439126	-0.186786	0.651051	-0.734017	-0.166499	0.592845	-0.733743	-0.105004	0.608013	-0.718393	-0.117908	0.666423	-0.717260	-0.252458	0.248294	-0.751829	-0.271237	0.208776	-0.750784	-0.224334	0.184075	-0.739297	-0.199993	0.216646	-0.739304	-0.376837	0.083185	-0.709261	-0.225861	0.028088	-0.782420	-0.195047	0.033107	-0.707083	-0.168417	0.025493	-0.720753	
